<?xml version="1.0" encoding="utf-8"?>
<!-- Generator: Adobe Illustrator 25.1.0, SVG Export Plug-In . SVG Version: 6.00 Build 0)  -->
<svg version="1.1" id="Layer_1" xmlns="http://www.w3.org/2000/svg" xmlns:xlink="http://www.w3.org/1999/xlink" x="0px" y="0px"
	 viewBox="0 0 64 64" style="enable-background:new 0 0 64 64;" xml:space="preserve">
<style type="text/css">
	.st0{fill:#FFFFFF;}
</style>
<g id="TikTok">
	<path id="Black" class="st0" d="M58.8,25.9c-0.5,0-1,0.1-1.6,0.1c-5.7,0-11.1-2.9-14.2-7.7v26.1c0,10.7-8.6,19.3-19.3,19.3
		c-10.7,0-19.3-8.6-19.3-19.3c0-10.7,8.6-19.3,19.3-19.3c0,0,0,0,0,0c0.4,0,0.8,0,1.2,0.1v9.5c-0.4-0.1-0.8-0.1-1.2-0.1
		c-5.4,0.2-9.7,4.7-9.5,10.2c0.2,5.2,4.3,9.4,9.5,9.5c5.4,0,10.3-4.3,10.3-9.7c0-0.2,0.1-44.3,0.1-44.3h9.1
		c0.8,8.1,7.4,14.5,15.6,15.1V25.9z"/>
</g>
</svg>
