<?xml version="1.0" encoding="utf-8"?>
<!-- Generator: Adobe Illustrator 25.1.0, SVG Export Plug-In . SVG Version: 6.00 Build 0)  -->
<svg version="1.1" id="Youtube" xmlns="http://www.w3.org/2000/svg" xmlns:xlink="http://www.w3.org/1999/xlink" x="0px" y="0px"
	 viewBox="0 0 90.5 64" style="enable-background:new 0 0 90.5 64;" xml:space="preserve">
<style type="text/css">
	.st0{fill:#FFFFFF;}
</style>
<g id="Black">
	<path class="st0" d="M88.4,10.3c-1-3.9-4.1-7-8-8c-7-1.8-35.1-1.8-35.1-1.8s-28.2,0-35.2,1.9c-3.9,1-7,4.1-8,8
		C0.2,17.4,0.2,32,0.2,32s0,14.6,1.9,21.7c1,3.9,4.1,7,8,8c7,1.9,35.2,1.9,35.2,1.9s28.1,0,35.2-1.9c3.9-1,7-4.1,8-8
		c1.9-7,1.9-21.7,1.9-21.7S90.2,17.4,88.4,10.3z"/>
	<polygon class="st0" points="36.2,45.5 59.6,32 36.2,18.5 	"/>
</g>
</svg>
